<svg xmlns="http://www.w3.org/2000/svg" width="11" height="11" viewBox="0 0 11 11"><defs><style>.a,.b{fill:#222;}.a{opacity:0;}</style></defs><g transform="translate(11 11) rotate(180)"><g transform="translate(0 0)"><rect class="a" width="11" height="11" transform="translate(11 11) rotate(180)"/><path class="b" d="M6.358,0a.453.453,0,0,0-.313.129L3.425,2.639.8.219A.447.447,0,0,0,.439.1.476.476,0,0,0,.109.3.619.619,0,0,0,0,.715a.587.587,0,0,0,.18.378L3.117,3.8a.442.442,0,0,0,.621,0L6.671,1a.589.589,0,0,0,.175-.38.617.617,0,0,0-.111-.41A.468.468,0,0,0,6.358,0Z" transform="translate(1.586 3.699)"/></g></g></svg>